<?xml version="1.0" encoding="utf-8"?>
<!-- Generator: Adobe Illustrator 21.0.0, SVG Export Plug-In . SVG Version: 6.00 Build 0)  -->
<svg version="1.1" id="Calque_1" xmlns="http://www.w3.org/2000/svg" xmlns:xlink="http://www.w3.org/1999/xlink" x="0px" y="0px"
	 viewBox="0 0 100 100" style="enable-background:new 0 0 100 100;" xml:space="preserve">
<style type="text/css">
	.st0{fill:url(#SVGID_1_);}
</style>
<g>
</g>
<g>
	<g>
		<linearGradient id="SVGID_1_" gradientUnits="userSpaceOnUse" x1="3.7984" y1="51.4445" x2="94.9962" y2="51.4445">
			<stop  offset="0" style="stop-color:#642DFF"/>
			<stop  offset="0.1791" style="stop-color:#AD2AD6"/>
			<stop  offset="0.4703" style="stop-color:#D826A1"/>
			<stop  offset="0.7963" style="stop-color:#FF6B00"/>
			<stop  offset="1" style="stop-color:#ED6502"/>
		</linearGradient>
		<path class="st0" d="M49.4,57.1C42.3,64.2,35,72,23.8,72c-11.6,0-20-8.6-20-20.5c0-10.9,8.9-20.5,21.1-20.5
			c10.3,0,17.9,8.2,24.5,14.8c7.1-7.1,14.4-14.8,25.6-14.8c11.8,0,20,8.6,20,20.5C95,62.4,86.1,72,73.9,72
			C63.7,72,56.1,63.8,49.4,57.1z M43.9,51.4c-5.4-5-11.1-12.2-19.1-12.2c-6.9,0-12.2,5.7-12.2,12.2c0,7.1,5,12.2,11.8,12.2
			C32.2,63.6,38.6,56.8,43.9,51.4z M86.3,51.4c0-7.1-5-12.2-11.8-12.2c-7.9,0-14.3,6.8-19.5,12.2c5.4,5,11.1,12.2,19.1,12.2
			C81,63.6,86.3,58,86.3,51.4z"/>
	</g>
</g>
</svg>
