<?xml version="1.0" encoding="utf-8"?>
<!-- Generator: Adobe Illustrator 21.0.0, SVG Export Plug-In . SVG Version: 6.00 Build 0)  -->
<svg version="1.1" id="Calque_1" xmlns="http://www.w3.org/2000/svg" xmlns:xlink="http://www.w3.org/1999/xlink" x="0px" y="0px"
	 viewBox="0 0 600 600" style="enable-background:new 0 0 600 600;" xml:space="preserve">
<style type="text/css">
	.st0{fill:#FF725C;}
</style>
<g id="_x39_RTOwV_1_">
	<g>
		<path class="st0" d="M154.2,176.5c28.6,0,54.9,9.7,77.6,29c14.1,12,27.8,24.4,41.8,36.6c2.8,2.4,2.8,4.3,0,6.8
			c-10.5,9.3-20.9,18.6-31.2,28.1c-2.4,2.2-3.5,0.8-5.2-0.7c-12.2-11-24.2-22.2-36.8-32.8c-27.4-23-65.9-24.3-93.8-1.9
			c-15.9,12.7-25.3,29.3-27.6,50.1c-4.3,39.3,22.6,72.4,57.5,80c24.4,5.3,46.5-1,65.3-17.5c22.6-19.9,44.9-39.9,67.3-60
			c14.8-13.3,29.5-26.8,44.4-40c20.4-17.9,39.7-36.9,61-53.6c16.9-13.2,36.3-20.5,57.7-23c35.3-4.2,66.8,4.9,93.9,27.3
			c23.6,19.6,38.6,44.9,43.2,75.7c4.5,30.4-1,58.8-17.7,84.6c-19.6,30.3-47.3,48.9-83,55.4c-38.2,6.9-71.3-4.6-101.3-27.9
			c-14.9-11.6-28.3-25-42.4-37.5c-1.9-1.7-1.4-2.5,0.3-4c10.2-9.1,20.3-18.3,30.2-27.5c2.9-2.7,4.8-3.2,8.2-0.1
			c14.4,13,27.8,27.1,44.1,37.8c25.7,16.9,59.5,15.8,84-2.8c28.1-21.2,37.7-58.5,22.8-89.7c-12.7-26.8-34.4-41.8-65-43.1
			c-22.4-0.9-40.1,8.4-56.2,22.8c-22.4,20.3-45.1,40.3-67.6,60.4c-14.8,13.3-29.4,26.9-44.5,40c-19.1,16.6-36.9,34.8-57.2,50
			c-17.9,13.4-38.2,20.5-60.5,22.7c-23.8,2.4-46.5-1.7-67.4-12.9c-36-19.3-58.8-48.9-65.5-89.7c-6.3-38.6,4.1-72.6,30.1-101.8
			c20.4-22.9,45.9-35.9,76.2-40C142.5,176.7,147.7,176.8,154.2,176.5z"/>
	</g>
</g>
</svg>
