<?xml version="1.0" encoding="utf-8"?>
<!-- Generator: Adobe Illustrator 21.0.0, SVG Export Plug-In . SVG Version: 6.00 Build 0)  -->
<svg version="1.1" id="Calque_1" xmlns="http://www.w3.org/2000/svg" xmlns:xlink="http://www.w3.org/1999/xlink" x="0px" y="0px"
	 viewBox="0 0 1200 300" style="enable-background:new 0 0 1200 300;" xml:space="preserve">
<style type="text/css">
	.st0{fill:#FF725C;stroke:#FF725C;stroke-width:6.9125;stroke-miterlimit:10;}
	.st1{font-family:'GothamMedium';}
	.st2{font-size:92.9333px;}
	.st3{letter-spacing:6;}
	.st4{fill:#FFFFFF;stroke:#FFFFFF;stroke-width:6.9127;stroke-miterlimit:10;}
	.st5{fill:#FF725C;}
</style>
<text transform="matrix(1 0 0 1 355.9734 181.1233)"><tspan x="0" y="0" class="st0 st1 st2 st3">STREA</tspan><tspan x="354.2" y="0" class="st4 st1 st2 st3">MOW</tspan></text>
<g id="_x39_RTOwV_1_">
	<g>
		<path class="st5" d="M203.2,112.7c8.8,0,16.9,3,23.9,8.9c4.3,3.7,8.6,7.5,12.9,11.3c0.9,0.7,0.9,1.3,0,2.1
			c-3.2,2.9-6.4,5.7-9.6,8.6c-0.7,0.7-1.1,0.2-1.6-0.2c-3.8-3.4-7.5-6.8-11.3-10.1c-8.4-7.1-20.3-7.5-28.8-0.6
			c-4.9,3.9-7.8,9-8.5,15.4c-1.3,12.1,7,22.3,17.7,24.6c7.5,1.6,14.3-0.3,20.1-5.4c6.9-6.1,13.8-12.3,20.7-18.5
			c4.6-4.1,9.1-8.3,13.7-12.3c6.3-5.5,12.2-11.4,18.8-16.5c5.2-4.1,11.2-6.3,17.7-7.1c10.8-1.3,20.5,1.5,28.9,8.4
			c7.3,6,11.9,13.8,13.3,23.3c1.4,9.3-0.3,18.1-5.4,26c-6,9.3-14.6,15-25.5,17c-11.8,2.1-21.9-1.4-31.2-8.6
			c-4.6-3.6-8.7-7.7-13-11.5c-0.6-0.5-0.4-0.8,0.1-1.2c3.1-2.8,6.2-5.6,9.3-8.5c0.9-0.8,1.5-1,2.5,0c4.4,4,8.6,8.3,13.6,11.6
			c7.9,5.2,18.3,4.8,25.8-0.8c8.7-6.5,11.6-18,7-27.6c-3.9-8.2-10.6-12.9-20-13.2c-6.9-0.3-12.3,2.6-17.3,7
			c-6.9,6.2-13.9,12.4-20.8,18.6c-4.6,4.1-9,8.3-13.7,12.3c-5.9,5.1-11.4,10.7-17.6,15.4c-5.5,4.1-11.8,6.3-18.6,7
			c-7.3,0.7-14.3-0.5-20.7-4c-11.1-5.9-18.1-15-20.2-27.6c-1.9-11.9,1.3-22.3,9.3-31.3c6.3-7,14.1-11,23.4-12.3
			C199.6,112.7,201.2,112.8,203.2,112.7z"/>
	</g>
</g>
</svg>
